<?xml version="1.0" encoding="UTF-8" standalone="no"?>
<svg
   version="1.1"
   width="1536"
   height="1024"
   id="svg40"
   xml:space="preserve"
   xmlns="http://www.w3.org/2000/svg"
   xmlns:svg="http://www.w3.org/2000/svg"><defs
     id="defs40" /><path
     d="M 1.6018882,-0.47114358 C 0.53202819,5.0795416 -9.5076419,12.094092 -15.229185,36.7464 c -0.980469,3.238281 -1.828528,4.934398 -2.828528,6.934398 0,0 1.414482,1.510282 2.057713,2.319202 0.707875,0.890216 1.666203,1.952429 2.447706,2.969707 2.373026,3.088958 4.6344967,6.265785 6.7973634,9.505371 0.8543789,1.279707 1.4605626,2.555904 2.4385244,3.919453 8.0732586,11.256354 17.7299422,18.009966 30.0625002,23.921875 17.385109,7.171027 40.246593,6.191622 58.503906,4.03125 14.360317,-1.99073 28.51313,-5.350586 42.80347,-7.83667 12.17236,-2.117619 24.28632,-4.719168 36.57177,-6.030029 10.08148,-1.075697 20.24931,-1.915015 30.37933,-1.495398 17.1023,0.708432 34.2721,2.71298 50.90429,6.757812 29.06918,7.069415 62.10628,26.907929 102.35725,58.881629 2.90305,2.30215 5.81913,4.5877 8.73389,6.875 1.16673,0.91659 2.3334,1.83324 3.5,2.75 0.5775,0.45375 1.155,0.90749 1.75,1.375 5.25,4.125 5.25,4.125 6.99927,5.49976 1.16868,0.91802 2.33779,1.8355 3.50732,2.75244 2.88963,2.2666 5.77155,4.54172 8.63794,6.83764 C 393.66965,177.31438 407.5432,187.07565 422,196 c 0.88156,0.54527 1.76312,1.09055 2.67139,1.65234 33.06071,20.35853 67.05743,36.74447 104.89111,46.09766 1.11157,0.28013 1.11157,0.28013 2.24561,0.56592 16.59148,3.88519 33.18549,5.18093 50.1853,5.07519 3.071,-0.0161 6.1407,-1e-5 9.21167,0.019 24.74335,0.31497 47.69682,-0.65684 86.79492,-22.41016 1.47423,-0.82023 3.50861,-1.04646 5.04848,-0.35734 0.90688,0.40585 1.57149,1.39643 1.8241,2.35734 3.45408,13.1392 -29.74121,31.99031 -34.67727,34.82812 C 633.5418,273.40241 607.68571,283.27235 575,286 c -0.91919,0.0767 -1.36101,0.15445 -2.74951,0.31201 -23.19601,2.55225 -46.4159,2.5017 -69.62549,0.31299 -0.67418,-0.063 -1.34836,-0.12607 -2.04297,-0.19101 -6.63771,-0.63624 -13.14365,-1.39095 -19.62695,-2.96963 -3.14226,-0.74633 -6.32972,-1.2043 -9.51758,-1.71436 -57.71409,-9.97208 -110.97327,-34.90493 -159.89867,-66.36874 -2.90439,-1.86676 -5.81991,-3.71569 -8.73486,-5.56592 -1.43773,-0.91631 -2.87534,-1.8328 -4.3125,-2.75 0.082,3.31343 0.19476,6.62516 0.3125,9.9375 0.0226,0.92619 0.0451,1.85238 0.0684,2.80664 0.46737,12.11016 3.55361,22.46086 10.12763,32.19052 9.01004,13.33503 18.50852,20.22538 30.06055,28.75 5.34658,3.94542 11.43048,8.09717 13.93945,14.25 0.88104,2.1606 0.76986,4.79733 0,7 -1.89795,5.43029 -6.81428,9.30472 -10.75,13.5 -0.58403,0.62254 -1.26288,1.14881 -1.89746,1.71973 -1.77833,1.59994 -3.56551,3.19005 -5.35254,4.78027 -0.78001,0.69411 -1.55936,1.38897 -2.34375,2.07812 -1.24245,1.0916 -2.5017,2.16399 -3.74219,3.25782 -3.13609,2.76532 -6.2417,5.56504 -9.35547,8.35547 -1.65616,1.48418 -3.31287,2.96776 -4.96093,4.46093 -5.27814,4.78208 -10.55305,9.56634 -15.78052,14.40552 -3.25044,3.00581 -6.51994,5.98751 -9.81714,8.94214 -8.51784,7.64528 -16.74757,15.56527 -24.97266,23.50391 -9.51733,9.18587 -18.26441,19.18636 -28.20337,27.9143 C 224.77462,424.62124 215.81118,436.8673 201,442 c -5.25902,1.70883 -10.57981,2.92873 -16,4 -0.69722,0.14276 -1.39444,0.28553 -2.11279,0.43262 -12.23277,2.49191 -23.77802,3.73684 -36.27368,3.69775 -2.07112,-0.005 -4.14203,10e-6 -6.21314,0.006 -1.30646,-10e-4 -2.61293,-0.003 -3.95898,-0.004 -1.18908,-10e-4 -1.51813,-0.0881 -3.60328,-0.003 -1.65469,0.0675 -3.80878,0.16793 -4.83813,-1.12937 -1.03594,-1.30561 -1.0865,-3.73616 0,-5 5.26477,-6.1241 13.61645,-7.41042 20.3125,-11.3125 7.37273,-4.29641 14.87597,-7.98252 21.86279,-13.31787 3.44256,-2.58399 6.98615,-5.02658 10.51221,-7.49463 C 209.30786,391.70799 236.78984,370.22082 263,347 c 0.78762,-0.6948 1.57523,-1.38961 2.38672,-2.10547 10.02639,-8.92088 18.82436,-17.55254 25.55078,-29.26953 1.52841,-5.21458 1.30166,-10.23069 1.0625,-15.625 -8.53171,-14.66387 -20.8433,-24.04813 -35.29297,-32.59766 -6.5174,-3.72198 -13.18965,-7.14295 -19.87109,-10.55859 C 216.33427,246.3523 196.84774,235.99436 183.90625,216.27734 181.05563,211.37639 178.82905,206.36228 177,201 c -0.3648,-1.04027 -0.72961,-2.08055 -1.10547,-3.15234 -2.3801,-10.23757 -2.45319,-23.38991 0.60547,-33.47266 4.0262,-11.56775 11.99707,-21.944 19.31641,-27.57031 3.00521,-2.65079 4.201,-3.48546 8.18359,-5.80469 -10.6928,5.27401 -19.42597,11.74215 -27.19333,21.54297 -4.75725,7.48077 -8.10686,14.63462 -9.59495,24.05462 -0.89671,7.46513 -0.87441,7.65958 -0.51989,12.49973 0.0135,1.88429 0.19663,0.72447 0.21043,2.64682 0.0235,3.08549 0.84986,7.08622 0.89126,10.17151 -17.71606,0.85838 -34.25503,-4.61907 -50.57936,-11.21032 0.009,-0.88301 0.0181,-1.76602 0.0273,-2.67578 -0.1588,-6.42809 0.1689,-11.31679 -3.17904,-16.90455 C 106.68232,160.94184 96.078904,155.34886 85,150 c -2.654714,-1.13232 -5.255316,-2.10378 -8,-3 0.964863,0.54914 0.964863,0.54914 1.949219,1.10937 11.56298,6.9279 23.632631,14.47432 29.925781,27.76563 1.4836,4.12112 2.9936,8.8664 1.55108,12.97715 C 107.88373,196.09705 101.98856,199.19816 94,205 c 0.433347,3.65359 8.52611,10.83831 14.53518,13.71145 3.01217,1.44022 6.59644,1.08414 9.92415,1.35564 4.2725,0.34858 9.28364,0.45537 12.85537,0.34789 9.06243,-0.27271 15.37364,3.14991 21.83142,7.29276 0.96076,0.61635 1.94306,1.42985 2.34021,2.5 0.40044,1.07903 0.57371,2.54996 -0.14388,3.4498 -7.82855,9.81669 -23.83542,9.49002 -36.34245,9.90495 -10.36378,-0.44258 -22.616774,-1.94193 -32,-6.625 C 73.958002,228.34759 61.052294,215.65488 54,201 c -0.623506,-1.29566 -0.598605,-2.82599 -0.662604,-4.26245 -0.03971,-0.89139 0.01665,-1.7929 0.174323,-2.67114 C 54.354458,189.37236 56.603705,185.9243 59,182 58.47793,181.82984 57.955859,181.65969 57.417969,181.48437 34.456944,173.92453 13.679415,163.65512 -4.4169922,147.41016 -5.5377773,146.41175 -6.669847,145.42595 -7.8095703,144.44922 -13.375502,139.66969 -18.576025,134.57334 -23.75,129.375 c -0.836602,-0.83273 -1.673203,-1.66547 -2.535156,-2.52344 l -2.449219,-2.45312 c -0.724131,-0.72526 -1.448262,-1.45052 -2.194336,-2.19776 C -33.095389,119.89865 -35.031048,117.47151 -37,115 c -6.174586,-5.76032 -12.840502,-11.45758 -21,-14 -11.119848,-1.07474 -21.518596,0.95483 -32.3125,3.375 -1.484717,0.32174 -2.969744,0.64206 -4.455078,0.96094 -5.058367,1.08981 -10.116382,2.18109 -15.161132,3.33252 -5.63564,1.23423 -9.77981,1.71923 -14.71768,2.18203 -3.89718,0.36526 -7.07864,0.31864 -10.35361,-0.85044 -4.06277,-1.89868 -8.02742,-4.03716 -10,-9 -0.77869,-1.959105 -0.89166,-4.206671 -2,-6 -0.49566,-0.802001 -1.6392,-1.128958 -2,-2 -0.63781,-1.539799 -0.77067,-3.522214 0,-5 2.37311,-4.550531 7.64259,-6.453454 12.625,-8.8125 15.52934,-7.444777 29.69039,-19.032118 40.75,-32.1875 5.660555,-6.534332 12.539548,-11.845059 20.625,-15 7.260274,-2.471818 14.358167,-3.571348 22,-4 l 2.378906,-2.632813 C -39.311438,12.925846 -39.311438,12.925846 -34,9 l 1.742188,-1.3203125 c 9.775296,-6.77375313 22.208488,-8.8373182 33.8597002,-8.15083108 z"
     fill="#1a1a19"
     transform="translate(571,330)"
     id="path2"
     style="display:inline" /><path
     d="M 0,0 2.4918213,0.00183105 C 59.06788,0.11450499 115.54361,13.860315 164.95166,41.802734 c 11.54422,6.771339 22.6996,14.299174 33.36084,22.384766 1.00805,0.7425 2.01609,1.485 3.05469,2.25 10.41889,7.750002 19.79937,16.548376 28.94531,25.75 1.20899,1.198572 2.41868,2.396431 3.62891,3.59375 1.31124,1.302037 2.62244,2.604122 3.93359,3.90625 0.65936,0.65098 1.31871,1.30195 1.99805,1.97266 3.96922,3.82922 7.59874,7.97998 10.8268,12.4473 -38.32699,1.86543 -71.38783,3.01942 -106.38735,4.08003 56.17179,1.8451 79.09695,2.41719 112,3.00001 1.57564,2.18167 3.14804,4.36556 4.71875,6.55078 0.43925,0.60751 0.8785,1.21502 1.33105,1.84094 13.10081,18.25532 23.25595,38.54421 30.9502,59.60828 0.31598,0.86416 0.63196,1.72831 0.95752,2.61865 4.42259,12.27037 7.92163,24.50649 10.04248,37.38135 0.2243,1.34312 0.2243,1.34312 0.45312,2.71338 5.3907,33.75574 3.24285,68.05404 -4.45312,101.28662 l -2,1 -13,-7 c 0.5346,-6.30832 1.66698,-12.25257 3.18359,-18.39844 5.02852,-22.18323 4.48454,-45.59107 -2.02929,-67.43799 -7.05704,-22.14126 -18.15064,-42.16729 -34.2168,-59.08545 -1.9375,-2.07812 -1.9375,-2.07812 -3.875,-4.57812 -3.73098,-4.5224 -8.47164,-7.88994 -13.0625,-11.5 -1.36318,-1.10408 -1.36318,-1.10408 -2.75391,-2.23047 C 215.8207,150.80416 196.81037,142.5577 176.3125,137.1875 l -3.12109,-0.875 c -21.19726,-5.73346 -48.73063,-5.5781 -70.10938,-0.44531 -29.374594,7.85817 -54.441848,21.67806 -76.331053,42.85742 -4.223354,4.29503 -8.738058,9.06205 -11.438477,14.46289 -0.653313,0.049 -1.306626,0.098 -1.979736,0.14844 -16.367392,1.30009 -32.337972,3.64924 -48.457764,6.72656 -0.92309,0.17531 -1.846179,0.35062 -2.797241,0.53125 -7.016895,1.33346 -14.031548,2.67865 -21.04419,4.0343 -20.898307,4.03197 -43.590689,8.25472 -64.627319,2.65711 -10.51993,-3.73245 -19.49476,-8.77948 -27.09375,-17.09766 -4.20161,-5.19631 -8.04909,-10.57349 -10,-17 -0.96486,-6.77817 0.33511,-13.01628 2.48828,-19.45313 5.37353,-12.60766 14.29937,-23.68034 22.51172,-34.54687 -31.70341,-3.47682 -65.31931,0.31145 -86,27.00004 -0.81082,0.098 -1.62164,0.19594 -2.45703,0.29687 -13.12355,1.77222 -22.98374,5.61177 -33.54297,13.70313 -6.01255,4.98754 -11.6384,10.30495 -16.57031,16.375 -3.91067,4.44491 -8.68031,8.12102 -13.42969,11.625 7.18362,-23.56921 20.6964,-45.82652 36,-65 0.65227,-0.84305 1.30453,-1.68609 1.97656,-2.55469 3.58636,-4.58653 7.34862,-8.95655 11.27735,-13.2539 0.45862,-0.50238 0.91724,-1.00475 1.38977,-1.52234 1.11769,-1.22401 2.23685,-2.44668 3.35632,-3.66907 98.7655,-4.078504 151.320865,-6.410772 236,-11.00004 -66.525679,-2.016913 -130.48339,-2.970239 -218,-5 1.78226,-3.883274 4.18045,-6.189925 7.4375,-8.875 0.56276,-0.469058 1.12551,-0.938115 1.70532,-1.421387 12.27834,-10.089938 25.23249,-19.516533 38.85718,-27.703613 l 2.23779,-1.349121 C -123.64823,21.842025 -78.720274,6.8443317 -30.371338,1.486084 -28.704962,1.3006953 -27.03972,1.104346 -25.376709,0.89086914 -16.949234,-0.11425902 -8.4740726,-0.01146695 0,0 Z"
     fill="#fdc030"
     transform="translate(732.6875,198.8125)"
     id="path3"
     style="display:inline" /><path
     d="M 0,0 3.9609375,-0.0234375 C 7.9483356,0.41016016 10.229824,1.2703606 13.625,3.375 c 2.65625,2.1445312 2.65625,2.1445312 5.5,4.8125 l 1.620605,1.5148926 c 3.816673,3.6075474 7.529266,7.3146994 11.230957,11.0397944 l 1.433411,1.44188 c 2.370264,2.38638 4.73241,4.779649 7.084168,7.184341 C 46.54596,35.500634 52.865417,41.037884 59.625,46.375 c 1.107725,0.90378 2.214684,1.8085 3.320312,2.714844 12.19857,9.667111 25.447104,17.043904 39.679688,23.285156 1.33818,0.656884 2.67367,1.319507 4,2 0.0864,0.654844 0.17273,1.309687 0.26172,1.984375 1.88271,12.228971 6.70783,22.560891 14.31641,32.300785 9.67625,11.66998 21.21693,22.00769 35.42187,27.71484 16.26922,4.9995 34.64177,6.15991 51.3125,2.375 6.94194,-1.67193 13.66165,-3.99122 20.39136,-6.36035 5.73431,-1.97087 11.20373,-2.98781 17.29614,-3.01465 -0.53109,-0.90621 -1.06219,-1.81242 -1.60938,-2.74609 -3.5175,-6.05022 -6.87304,-12.01112 -9.58203,-18.47657 -0.98881,-2.17348 -2.24368,-3.97769 -3.80859,-5.77734 7.81293,3.47242 12.66451,10.07701 18.0625,16.42578 15.27108,17.53447 36.07528,27.90342 56.41553,38.48242 21.54899,11.20873 21.54899,11.20873 25.52197,17.0918 -104.50845,8.06913 -209.32725,25.34147 -314,32 -2.693586,-2.49351 -5.378679,-4.99599 -8.0625,-7.5 C 7.810332,198.17891 7.0581641,197.48281 6.2832031,196.76562 1.4074967,192.20652 -3.0576071,187.46139 -7.375,182.375 c -0.9364968,-1.06063 -1.8751776,-2.11934 -2.816406,-3.17578 -17.913055,-20.34884 -31.42433,-42.3091 -42.96875,-66.77734 -0.380354,-0.80599 -0.760708,-1.61198 -1.152588,-2.44239 -1.281224,-3.14137 -2.176901,-6.33201 -3.062256,-9.60449 97.030848,-6.106808 117.843049,-6.917505 147,-8 -50.621713,-2.759672 -101.319769,-3.84993 -152,-5 -0.807823,-3.029103 -1.611647,-6.059254 -2.414795,-9.0896 l -0.688042,-2.579368 C -67.22028,69.119931 -68.680729,62.554702 -69.6875,55.8125 l -0.500977,-3.317627 C -72.193084,37.542284 -71.729757,22.423538 -71.375,7.375 l 2.300781,0.4829102 c 17.748456,3.4000748 37.936402,-1.597869 55.0625,-6.1274415 C -9.1954347,0.49146958 -4.9726101,-0.02977611 0,0 Z"
     fill="#fdac22"
     transform="translate(502.375,444.625)"
     id="path4"
     style="display:inline" /><path
     d="M 0,0 C 1.2834228,0.33100708 1.2834228,0.33100708 2.5927734,0.66870117 26.661373,7.0707339 48.398912,18.533343 67.25,34.8125 c 0.779883,0.64582 1.559766,1.291641 2.363281,1.957031 C 75.615836,41.85978 80.441088,47.600989 85.25,53.8125 c 0.7425,0.938437 1.485,1.876875 2.25,2.84375 16.13307,20.838544 26.69982,44.76585 30.38818,70.9126 2.4088,21.59462 -0.14369,42.61346 -6.63818,63.24365 -3.38785,-0.63585 -5.68161,-1.92237 -8.52734,-3.84375 -0.86811,-0.58233 -1.73621,-1.16467 -2.63062,-1.76465 -0.917248,-0.62423 -1.834496,-1.24846 -2.77954,-1.8916 -0.944963,-0.63712 -1.889927,-1.27424 -2.863525,-1.93066 -2.737845,-1.84942 -5.469687,-3.70732 -8.198975,-5.56934 -0.669023,-0.45568 -1.338047,-0.91137 -2.027344,-1.38086 -3.678127,-2.51079 -7.32986,-5.05743 -10.972656,-7.61914 -0.546401,-0.38043 -1.092803,-0.76087 -1.655762,-1.15283 C 60.189386,157.71555 49.425035,149.06674 38.6875,140.25 32.286927,135.00209 25.790007,129.88465 19.25,124.8125 18.446753,124.18859 17.643506,123.56469 16.815918,122.92188 5.8933702,114.45777 -5.0561381,106.18426 -16.75,98.8125 c -0.696577,-0.441504 -1.393154,-0.883008 -2.11084,-1.337891 -10.030781,-6.328708 -20.237507,-12.224843 -30.811279,-17.60083 -1.45415,-0.742708 -2.900726,-1.500349 -4.341309,-2.269043 C -60.728529,74.095109 -67.617933,71.598768 -74.8125,69.25 -76.006252,68.857964 -77.200005,68.465928 -78.429932,68.062012 -87.461765,65.140397 -96.42436,62.577415 -105.75,60.8125 c -1.04825,-0.21197 -1.04825,-0.21197 -2.11768,-0.428223 -16.77923,-3.320075 -33.84038,-3.294086 -50.88232,-3.571777 12.73678,-19.325286 31.56789,-33.547488 52,-44 9.964544,-4.8716109 20.299211,-9.0583591 31,-12 1.07387,-0.29632324 1.07387,-0.29632324 2.169434,-0.59863281 C -51.03328,-5.6873501 -22.547132,-5.903124 0,0 Z"
     fill="#fdf8d1"
     transform="translate(906.75,334.1875)"
     id="path5"
     style="display:inline" /><path
     d="m 0,0 c -3.9527458,4.7956041 -8.1055286,9.1794058 -12.6875,13.375 -0.61448,0.565979 -1.22896,1.131958 -1.862061,1.715088 -4.347364,3.973652 -8.803095,7.776634 -13.399658,11.460693 -3.163952,2.540075 -6.292179,5.119801 -9.417968,7.706543 C -43.834285,39.606945 -50.305167,44.935959 -57,50 c -0.848203,0.64582 -1.696406,1.291641 -2.570312,1.957031 -8.348072,6.312234 -16.84186,12.419163 -25.33545,18.533203 C -89.281621,73.644852 -93.641085,76.822025 -98,80 c -18.43139,0.628343 -36.279,-1.999193 -54.4375,-4.9375 -1.36343,-0.218013 -1.36343,-0.218013 -2.75439,-0.44043 -14.93485,-2.516183 -29.29171,-6.472063 -43.62061,-11.30957 -0.78298,-0.262284 -1.56597,-0.524568 -2.37268,-0.7948 C -213.4823,58.385272 -225.38144,53.801163 -237,48 c -1.46602,-0.719007 -2.93217,-1.437757 -4.39844,-2.15625 C -245.28215,43.927504 -249.14202,41.967487 -253,40 c -1.99903,-1.001945 -3.99888,-2.002243 -6,-3 -1.33333,-0.666667 -2.66667,-1.333333 -4,-2 0,-0.66 0,-1.32 0,-2 0.94746,-0.187921 0.94746,-0.187921 1.91406,-0.379639 3.02888,-0.601465 6.05745,-1.204469 9.08594,-1.807861 1.70555,-0.339467 1.70555,-0.339467 3.44556,-0.685791 6.39752,-1.278441 12.78475,-2.594087 19.16382,-3.961426 C -189.07665,17.572811 -147.99364,11.263607 -107,7 c 1.12841,-0.1179492 2.25683,-0.2358984 3.41943,-0.3574219 C -69.187243,3.0952641 -34.606241,-0.38028836 0,0 Z"
     fill="#fd810d"
     transform="translate(837,655)"
     id="path6"
     style="display:inline" /><path
     d="M -0.61797447,-1.6912986 1.7431371,1.0066188 C 2.9962864,2.0834593 3.8302412,3.2861839 5.0898437,4.3554687 6.6534946,5.7016794 8.1767649,7.094665 9.6875,8.5 16.883772,14.448919 26.057351,17.747676 35,20 l 2.131836,0.555176 C 44.78759,22.325632 52.301088,22.225904 60.125,22.125 61.476556,22.11494 62.828119,22.10582 64.179687,22.09766 67.453316,22.074273 70.72656,22.041501 74,22 L 70.308594,21.816406 C 68.684887,21.731936 67.06119,21.647291 65.4375,21.5625 L 63.013672,21.443359 C 58.286285,21.192518 53.675231,20.746782 49,20 49,20 47.115086,19.621424 45.931177,18.713453 48.447907,19.056221 49,19 49,19 c 0.924097,0.02095 1.848193,0.0419 2.800293,0.06348 C 71.650345,19.45197 90.448878,18.855673 110,15 c 1.4294,-0.276667 2.85894,-0.552673 4.28857,-0.828125 6.2582,-1.207263 12.51494,-2.42146 18.76685,-3.660889 9.17927,-1.9651997 44.85847,-8.7178557 67.52979,-8.2313949 19.9628,0.4283437 45.59412,5.8359443 59.09643,9.7919169 35.037,11.858125 64.86163,33.737264 93.58447,56.553492 2.90305,2.302163 5.81913,4.587702 8.73389,6.875 1.16673,0.916588 2.3334,1.833254 3.5,2.75 l 1.75,1.375 c 5.25,4.125 5.25,4.125 6.99927,5.499756 1.16868,0.918027 2.33779,1.835506 3.50732,2.752441 2.88963,2.266602 5.77155,4.541719 8.63794,6.837647 9.87488,7.882096 29.2923,21.307916 29.2923,21.307916 0,0 0.97638,0.61987 1.47951,1.54979 1.82433,4.85306 16.14775,14.10885 38.27507,27.86861 2.30467,1.40414 14.45233,6.60533 16.57628,8.26669 C 461.6955,152.23653 452.23909,147.81724 447.375,146 c -0.82468,-0.30688 -1.64936,-0.61375 -2.49902,-0.92993 C 422.81722,136.71164 402.7395,125.81896 383,113 c -0.67595,-0.43603 -1.3519,-0.87205 -2.04834,-1.32129 C 371.67708,105.68316 362.81214,99.232303 354.0293,92.541016 350.63841,89.966033 347.22341,87.423353 343.8125,84.875 339.02627,81.294555 334.27874,77.672098 329.5625,74 305.41898,55.35129 276.94962,34.521351 246.43359,28.492187 244.70848,28.143288 242.9925,27.747763 241.28516,27.320312 206.3826,18.605903 172.91195,21.623959 138,28 l -2.08875,0.378723 c -8.84634,1.60659 -17.67957,3.285322 -26.47131,5.170105 -10.70828,2.254375 -21.299082,2.689167 -32.21411,2.746338 -1.513116,0.01146 -3.026194,0.03182 -4.539062,0.06152 C 54.732262,37.392011 39.155138,33.626917 23.407138,25.767781 11.019587,20.125579 3.1368289,8.5947354 -0.61797447,-1.6912986 Z"
     fill="#fa7709"
     transform="translate(565,402)"
     id="path8"
     style="display:inline" /><path
     d="m 11.788235,-0.82350701 c 2.947973,0.74335837 2.450157,5.12287101 1.850552,8.27094531 -0.406108,2.1321666 -2.822668,6.0639927 -2.822668,6.0639927 -21.559101,2.564487 -43.5308,4.606222 -65.163775,6.461225 -18.983557,1.63271 -37.953064,3.393294 -56.918584,5.222473 -3.18263,0.30686 -6.36549,0.611312 -9.54858,0.913453 -15.50963,1.473536 -30.97133,3.002508 -46.38,5.338928 -6.54873,0.989537 -13.12963,1.642706 -19.71534,2.337646 -16.40461,1.781997 -32.73083,4.087935 -49.0625,6.4375 l -3.7084,0.533295 c -5.61922,0.809805 -11.23786,1.623531 -16.85556,2.443756 l -2.98895,0.436096 c -2.17389,0.326819 -4.34565,0.667873 -6.51575,1.018921 l -3.4494,0.555725 -3.10929,0.513153 c -3.03209,0.378352 -5.94545,0.438693 -8.99765,0.374054 -18.4931,-13.203312 -18.4931,-13.203312 -26.15234,-19.511719 -1.98663,-1.645903 -4.84766,-5.488281 -4.84766,-5.488281 C -203.42807,20.573011 -97.607937,0.2856163 11.788235,-0.82350701 Z"
     fill="#feab20"
     transform="translate(835.59766,631.90234)"
     id="path9"
     style="display:inline" /><path
     d="m 0,0 c 4.6081503,-0.02478935 9.2162615,-0.0429023 13.824463,-0.05493164 1.566413,-0.0050169 3.132822,-0.01183198 4.699219,-0.02050781 2.25644,-0.01218149 4.512819,-0.01781536 6.769287,-0.0222168 l 2.109176,-0.01564026 C 31.064702,-0.11371546 34.438689,-0.06363517 38,-0.05684819 34.123724,4.7171283 30.095815,9.9492481 25.3125,13.8125 l -2.023926,1.635986 C -4.1101037,37.062328 -34.430899,52.76692 -67,65 l -2,-1 c 3.714694,-3.761853 7.440192,-7.512796 11.183594,-11.246094 l 1.915771,-1.911865 c 2.500596,-2.423506 5.088328,-4.728145 7.748291,-6.974854 C -45.028135,41.156894 -42.021893,38.32338 -39,35.5 c 4.210847,-3.929537 8.449783,-7.801537 12.8125,-11.5625 3.741509,-3.313908 7.374556,-6.745499 11.02832,-10.155518 C -11.318458,10.20436 -7.435828,6.689461 -3.453125,3.2695313 -2.2593937,2.2266209 -1.1208605,1.1208605 0,0 Z"
     fill="#fd9416"
     transform="translate(924,653)"
     id="path10"
     style="display:inline" /><path
     d="M 0.04894253,-0.57207686 C 13.511839,6.6976199 21.506242,12.112457 32.599836,17.774784 c 9.718836,4.960632 17.5735,7.676224 29.746202,13.665147 C 52.912532,35.342949 49.673619,37.416927 38.425643,41.558852 33.254293,37.008718 32.801988,36.655821 24.125,30.1875 9.2382011,18.696413 0.04894253,3.4573086 0.04894253,-0.57207686 Z"
     fill="#fef8d2"
     id="path13"
     transform="translate(888,565)"
     style="display:inline" /><path
     d="m 0,0 c -4.2650064,5.72135 -8.6112699,11.372975 -13,17 -14.014837,0.670942 -27.968446,1.11693 -42,1 0.66,-4.95 1.32,-9.9 2,-15 4.975988,-0.4335923 9.952006,-0.8627762 14.929199,-1.2817383 1.685428,-0.1430933 3.37066,-0.2885186 5.055664,-0.4365234 C -21.973751,0.3138887 -11.086954,-0.20773613 0,0 Z"
     fill="#fdbf2b"
     transform="translate(992,621)"
     id="path15"
     style="display:inline" /><path
     d="M 0.882796,-0.76103103 C 2.7916878,-0.37143383 18.488208,5.4569899 27.371673,10.64545 15.400726,12.910518 -4.5932793,14.980797 -16.426611,14.918711 l -5.6826,-5.7177043 C -18.766889,8.2937366 -8.619793,5.0677703 0.882796,-0.76103103 Z"
     fill="#fece3c"
     transform="translate(947,596)"
     id="path19"
     style="display:inline" /></svg>
